# Blender v2.81 (sub 16) OBJ File: 'decentra.blend'
# www.blender.org
mtllib decentra.mtl
o Car_Cube.001
v 2.085444 -0.074048 -1.300816
v 3.113967 -1.225559 -1.199989
v 2.076751 -0.066518 1.319617
v 3.109514 -1.224984 1.218790
v 1.108493 0.772168 -0.827096
v 1.108493 -1.227832 -1.300816
v 1.108493 0.772168 0.845897
v 1.108493 -1.227832 1.319617
v -1.011101 0.772168 -0.827096
v -1.011101 -1.227832 -1.300816
v -1.011101 0.772168 0.845897
v -1.011101 -1.227832 1.319617
v -2.066165 -0.046713 -1.300816
v -2.717968 -1.227832 -1.300816
v -2.066165 -0.046713 1.319617
v -2.717968 -1.227832 1.319617
v 3.192401 -0.100852 -1.300816
v 3.192401 -0.100852 1.319617
v -3.593973 -0.143479 -1.130846
v -4.214375 -1.227832 -1.300816
v -3.593973 -0.143479 1.149647
v -4.214375 -1.227832 1.319617
v 3.421113 0.151252 -1.300816
v 1.108493 -0.133969 -1.367906
v -1.011101 -0.054471 -1.367906
v 3.421113 0.151252 1.319617
v 1.108493 -0.070058 1.386707
v -1.011101 -0.054471 1.386707
vt 0.963189 0.521199
vt 0.904561 0.629437
vt 0.766642 0.633385
vt 0.713659 0.518778
vt 0.083256 0.003580
vt 0.155827 0.130128
vt 0.247398 0.131834
vt 0.253978 0.030407
vt 0.183672 0.754094
vt 0.183672 0.518778
vt 0.374012 0.518778
vt 0.374012 0.754094
vt 0.003580 0.745040
vt 0.003979 0.527833
vt 0.261751 0.476335
vt 0.251212 0.380884
vt 0.157172 0.384147
vt 0.095113 0.511619
vt 0.763131 0.804097
vt 0.903266 0.806338
vt 0.967908 0.925211
vt 0.704630 0.930542
vt 0.003580 0.911488
vt 0.003580 0.761253
vt 0.193920 0.761253
vt 0.193920 0.911488
vt 0.996420 0.613132
vt 0.996420 0.817560
vt 0.431433 0.137503
vt 0.436874 0.036805
vt 0.521745 0.359120
vt 0.587201 0.451142
vt 0.714703 0.435166
vt 0.650124 0.348268
vt 0.519355 0.143038
vt 0.584745 0.048863
vt 0.527289 0.518778
vt 0.527289 0.754094
vt 0.034418 0.109903
vt 0.042109 0.405359
vt 0.721862 0.246054
vt 0.834049 0.261318
vt 0.834049 0.466107
vt 0.721862 0.481370
vt 0.661667 0.518778
vt 0.661667 0.754094
vt 0.650092 0.152751
vt 0.714703 0.063495
vt 0.721862 0.012633
vt 0.721900 0.229841
vt 0.848577 0.238895
vt 0.848577 0.003580
vt 0.434100 0.365929
vt 0.441606 0.465088
vt 0.668826 0.818422
vt 0.679039 0.613290
vt 0.003580 0.122692
vt 0.007653 0.392155
vn 0.6547 0.7559 0.0000
vn 0.0565 -0.0471 0.9973
vn 0.0000 -1.0000 0.0000
vn 0.0013 -1.0000 0.0001
vn 0.0572 -0.0484 -0.9972
vn -0.6131 0.7900 0.0000
vn 0.0000 1.0000 0.0000
vn 0.0099 0.5295 -0.8483
vn -0.0002 -0.0575 0.9983
vn -0.0592 0.1077 -0.9924
vn -0.0243 -0.0217 0.9995
vn -0.0491 0.5468 -0.8358
vn 0.0275 0.9996 -0.0014
vn -0.8680 0.4966 0.0000
vn -0.0632 0.9980 0.0000
vn -0.0592 0.1077 0.9924
vn -0.0022 -0.0891 -0.9960
vn -0.0027 -0.0891 0.9960
vn 0.9757 -0.2193 0.0009
vn -0.0011 -0.0591 -0.9983
vn -0.0243 -0.0217 -0.9995
vn 0.0275 0.5123 -0.8584
vn -0.0491 0.5468 0.8358
vn 0.0020 0.5439 0.8392
vn 0.0562 0.5395 0.8401
vn 0.1065 -0.0966 0.9896
vn 0.1059 -0.0961 -0.9897
vn -0.7406 0.6719 0.0000
usemtl DecentraCarMaterial
s off
f 1/1/1 5/2/1 7/3/1 3/4/1
f 4/5/2 3/6/2 27/7/2 8/8/2
f 6/9/3 8/10/3 12/11/3 10/12/3
f 6/9/4 2/13/4 4/14/4 8/10/4
f 6/15/5 24/16/5 1/17/5 2/18/5
f 11/19/6 9/20/6 13/21/6 15/22/6
f 7/23/7 5/24/7 9/25/7 11/26/7
f 5/2/8 24/27/8 25/28/8 9/20/8
f 8/8/9 27/7/9 28/29/9 12/30/9
f 13/31/10 14/32/10 20/33/10 19/34/10
f 12/30/11 28/29/11 15/35/11 16/36/11
f 9/20/12 25/28/12 13/21/12
f 10/12/3 12/11/3 16/37/3 14/38/3
f 1/17/13 3/6/13 18/39/13 17/40/13
f 22/41/14 21/42/14 19/43/14 20/44/14
f 14/38/3 16/37/3 22/45/3 20/46/3
f 15/35/15 13/31/15 19/34/15 21/47/15
f 16/36/16 15/35/16 21/47/16 22/48/16
f 1/17/17 17/40/17 2/18/17
f 18/39/18 3/6/18 4/5/18
f 4/49/19 2/50/19 23/51/19 26/52/19
f 25/53/20 24/16/20 6/15/20 10/54/20
f 13/31/21 25/53/21 10/54/21 14/32/21
f 1/1/22 24/27/22 5/2/22
f 15/22/23 28/55/23 11/19/23
f 28/55/24 27/56/24 7/3/24 11/19/24
f 27/56/25 3/4/25 7/3/25
f 4/5/26 26/57/26 18/39/26
f 17/40/27 23/58/27 2/18/27
f 18/39/28 26/57/28 23/58/28 17/40/28
o FrontWheels_Cylinder
v -2.713276 -0.194698 -1.664348
v -2.713276 -0.194698 -1.338501
v -2.316197 -0.323717 -1.664348
v -2.316197 -0.323717 -1.338501
v -2.070788 -0.661492 -1.664348
v -2.070788 -0.661492 -1.338501
v -2.070788 -1.079006 -1.664348
v -2.070788 -1.079006 -1.338501
v -2.316197 -1.416782 -1.664348
v -2.316197 -1.416782 -1.338501
v -2.713276 -1.545800 -1.664348
v -2.713276 -1.545800 -1.338501
v -3.110354 -1.416781 -1.664348
v -3.110354 -1.416781 -1.338501
v -3.355763 -1.079006 -1.664348
v -3.355763 -1.079006 -1.338501
v -3.355763 -0.661492 -1.664348
v -3.355763 -0.661492 -1.338501
v -3.110354 -0.323716 -1.664348
v -3.110354 -0.323716 -1.338501
v -2.708832 -0.192103 1.388826
v -2.708832 -0.192103 1.714673
v -2.311752 -0.321122 1.388826
v -2.311752 -0.321122 1.714673
v -2.066344 -0.658898 1.388826
v -2.066344 -0.658898 1.714673
v -2.066344 -1.076412 1.388826
v -2.066344 -1.076412 1.714673
v -2.311752 -1.414187 1.388826
v -2.311752 -1.414187 1.714673
v -2.708832 -1.543206 1.388826
v -2.708832 -1.543206 1.714673
v -3.105910 -1.414187 1.388826
v -3.105910 -1.414187 1.714673
v -3.351318 -1.076412 1.388826
v -3.351318 -1.076412 1.714673
v -3.351318 -0.658898 1.388826
v -3.351318 -0.658898 1.714673
v -3.105910 -0.321122 1.388826
v -3.105910 -0.321122 1.714673
vt 1.000000 0.500000
vt 1.000000 1.000000
vt 0.900000 1.000000
vt 0.900000 0.500000
vt 0.800000 1.000000
vt 0.800000 0.500000
vt 0.700000 1.000000
vt 0.700000 0.500000
vt 0.600000 1.000000
vt 0.600000 0.500000
vt 0.500000 1.000000
vt 0.500000 0.500000
vt 0.400000 1.000000
vt 0.400000 0.500000
vt 0.300000 1.000000
vt 0.300000 0.500000
vt 0.200000 1.000000
vt 0.200000 0.500000
vt 0.391068 0.444164
vt 0.250000 0.490000
vt 0.108932 0.444164
vt 0.021746 0.324164
vt 0.021746 0.175836
vt 0.108932 0.055836
vt 0.250000 0.010000
vt 0.391068 0.055836
vt 0.478254 0.175836
vt 0.478254 0.324164
vt 0.100000 1.000000
vt 0.100000 0.500000
vt -0.000000 1.000000
vt -0.000000 0.500000
vt 0.750000 0.490000
vt 0.891068 0.444164
vt 0.978254 0.324164
vt 0.978254 0.175836
vt 0.891068 0.055836
vt 0.750000 0.010000
vt 0.608932 0.055836
vt 0.521746 0.175836
vt 0.521746 0.324164
vt 0.608932 0.444164
vt 1.000000 0.500000
vt 1.000000 1.000000
vt 0.900000 1.000000
vt 0.900000 0.500000
vt 0.800000 1.000000
vt 0.800000 0.500000
vt 0.700000 1.000000
vt 0.700000 0.500000
vt 0.600000 1.000000
vt 0.600000 0.500000
vt 0.500000 1.000000
vt 0.500000 0.500000
vt 0.400000 1.000000
vt 0.400000 0.500000
vt 0.300000 1.000000
vt 0.300000 0.500000
vt 0.200000 1.000000
vt 0.200000 0.500000
vt 0.391068 0.444164
vt 0.250000 0.490000
vt 0.108932 0.444164
vt 0.021746 0.324164
vt 0.021746 0.175836
vt 0.108932 0.055836
vt 0.250000 0.010000
vt 0.391068 0.055836
vt 0.478254 0.175836
vt 0.478254 0.324164
vt 0.100000 1.000000
vt 0.100000 0.500000
vt -0.000000 1.000000
vt -0.000000 0.500000
vt 0.750000 0.490000
vt 0.891068 0.444164
vt 0.978254 0.324164
vt 0.978254 0.175836
vt 0.891068 0.055836
vt 0.750000 0.010000
vt 0.608932 0.055836
vt 0.521746 0.175836
vt 0.521746 0.324164
vt 0.608932 0.444164
vn 0.3090 0.9511 0.0000
vn 0.8090 0.5878 0.0000
vn 1.0000 0.0000 0.0000
vn 0.8090 -0.5878 0.0000
vn 0.3090 -0.9511 0.0000
vn -0.3090 -0.9511 0.0000
vn -0.8090 -0.5878 0.0000
vn -1.0000 0.0000 0.0000
vn 0.0000 0.0000 1.0000
vn -0.8090 0.5878 0.0000
vn -0.3090 0.9511 0.0000
vn 0.0000 0.0000 -1.0000
usemtl DecentraWheelMaterial
s off
f 29/59/29 30/60/29 32/61/29 31/62/29
f 31/62/30 32/61/30 34/63/30 33/64/30
f 33/64/31 34/63/31 36/65/31 35/66/31
f 35/66/32 36/65/32 38/67/32 37/68/32
f 37/68/33 38/67/33 40/69/33 39/70/33
f 39/70/34 40/69/34 42/71/34 41/72/34
f 41/72/35 42/71/35 44/73/35 43/74/35
f 43/74/36 44/73/36 46/75/36 45/76/36
f 32/77/37 30/78/37 48/79/37 46/80/37 44/81/37 42/82/37 40/83/37 38/84/37 36/85/37 34/86/37
f 45/76/38 46/75/38 48/87/38 47/88/38
f 47/88/39 48/87/39 30/89/39 29/90/39
f 29/91/40 31/92/40 33/93/40 35/94/40 37/95/40 39/96/40 41/97/40 43/98/40 45/99/40 47/100/40
f 49/101/29 50/102/29 52/103/29 51/104/29
f 51/104/30 52/103/30 54/105/30 53/106/30
f 53/106/31 54/105/31 56/107/31 55/108/31
f 55/108/32 56/107/32 58/109/32 57/110/32
f 57/110/33 58/109/33 60/111/33 59/112/33
f 59/112/34 60/111/34 62/113/34 61/114/34
f 61/114/35 62/113/35 64/115/35 63/116/35
f 63/116/36 64/115/36 66/117/36 65/118/36
f 52/119/37 50/120/37 68/121/37 66/122/37 64/123/37 62/124/37 60/125/37 58/126/37 56/127/37 54/128/37
f 65/118/38 66/117/38 68/129/38 67/130/38
f 67/130/39 68/129/39 50/131/39 49/132/39
f 49/133/40 51/134/40 53/135/40 55/136/40 57/137/40 59/138/40 61/139/40 63/140/40 65/141/40 67/142/40
o RearWheels_Cylinder.000
v 1.892300 -0.194697 -1.689174
v 1.892300 -0.194697 -1.358538
v 2.289379 -0.323716 -1.689174
v 2.289379 -0.323716 -1.358538
v 2.534787 -0.661492 -1.689174
v 2.534787 -0.661492 -1.358538
v 2.534787 -1.079005 -1.689174
v 2.534787 -1.079005 -1.358538
v 2.289379 -1.416781 -1.689174
v 2.289379 -1.416781 -1.358538
v 1.892300 -1.545800 -1.689174
v 1.892300 -1.545800 -1.358538
v 1.495221 -1.416781 -1.689174
v 1.495221 -1.416781 -1.358538
v 1.249813 -1.079005 -1.689174
v 1.249813 -1.079005 -1.358538
v 1.249813 -0.661492 -1.689174
v 1.249813 -0.661492 -1.358538
v 1.495221 -0.323716 -1.689174
v 1.495221 -0.323716 -1.358538
v 1.896744 -0.192103 1.408863
v 1.896744 -0.192103 1.739499
v 2.293823 -0.321122 1.408863
v 2.293823 -0.321122 1.739499
v 2.539232 -0.658898 1.408863
v 2.539232 -0.658898 1.739499
v 2.539232 -1.076411 1.408863
v 2.539232 -1.076411 1.739499
v 2.293823 -1.414187 1.408863
v 2.293823 -1.414187 1.739499
v 1.896744 -1.543206 1.408863
v 1.896744 -1.543206 1.739499
v 1.499665 -1.414187 1.408863
v 1.499665 -1.414187 1.739499
v 1.254257 -1.076411 1.408863
v 1.254257 -1.076411 1.739499
v 1.254257 -0.658897 1.408863
v 1.254257 -0.658897 1.739499
v 1.499666 -0.321122 1.408863
v 1.499666 -0.321122 1.739499
vt 1.000000 0.500000
vt 1.000000 1.000000
vt 0.900000 1.000000
vt 0.900000 0.500000
vt 0.800000 1.000000
vt 0.800000 0.500000
vt 0.700000 1.000000
vt 0.700000 0.500000
vt 0.600000 1.000000
vt 0.600000 0.500000
vt 0.500000 1.000000
vt 0.500000 0.500000
vt 0.400000 1.000000
vt 0.400000 0.500000
vt 0.300000 1.000000
vt 0.300000 0.500000
vt 0.200000 1.000000
vt 0.200000 0.500000
vt 0.391068 0.444164
vt 0.250000 0.490000
vt 0.108932 0.444164
vt 0.021746 0.324164
vt 0.021746 0.175836
vt 0.108932 0.055836
vt 0.250000 0.010000
vt 0.391068 0.055836
vt 0.478254 0.175836
vt 0.478254 0.324164
vt 0.100000 1.000000
vt 0.100000 0.500000
vt -0.000000 1.000000
vt -0.000000 0.500000
vt 0.750000 0.490000
vt 0.891068 0.444164
vt 0.978254 0.324164
vt 0.978254 0.175836
vt 0.891068 0.055836
vt 0.750000 0.010000
vt 0.608932 0.055836
vt 0.521746 0.175836
vt 0.521746 0.324164
vt 0.608932 0.444164
vt 1.000000 0.500000
vt 1.000000 1.000000
vt 0.900000 1.000000
vt 0.900000 0.500000
vt 0.800000 1.000000
vt 0.800000 0.500000
vt 0.700000 1.000000
vt 0.700000 0.500000
vt 0.600000 1.000000
vt 0.600000 0.500000
vt 0.500000 1.000000
vt 0.500000 0.500000
vt 0.400000 1.000000
vt 0.400000 0.500000
vt 0.300000 1.000000
vt 0.300000 0.500000
vt 0.200000 1.000000
vt 0.200000 0.500000
vt 0.391068 0.444164
vt 0.250000 0.490000
vt 0.108932 0.444164
vt 0.021746 0.324164
vt 0.021746 0.175836
vt 0.108932 0.055836
vt 0.250000 0.010000
vt 0.391068 0.055836
vt 0.478254 0.175836
vt 0.478254 0.324164
vt 0.100000 1.000000
vt 0.100000 0.500000
vt -0.000000 1.000000
vt -0.000000 0.500000
vt 0.750000 0.490000
vt 0.891068 0.444164
vt 0.978254 0.324164
vt 0.978254 0.175836
vt 0.891068 0.055836
vt 0.750000 0.010000
vt 0.608932 0.055836
vt 0.521746 0.175836
vt 0.521746 0.324164
vt 0.608932 0.444164
vn 0.3090 0.9511 0.0000
vn 0.8090 0.5878 0.0000
vn 1.0000 0.0000 0.0000
vn 0.8090 -0.5878 0.0000
vn 0.3090 -0.9511 0.0000
vn -0.3090 -0.9511 0.0000
vn -0.8090 -0.5878 0.0000
vn -1.0000 0.0000 0.0000
vn -0.0000 0.0000 1.0000
vn -0.8090 0.5878 0.0000
vn -0.3090 0.9511 0.0000
vn 0.0000 0.0000 -1.0000
usemtl DecentraWheelMaterial
s off
f 69/143/41 70/144/41 72/145/41 71/146/41
f 71/146/42 72/145/42 74/147/42 73/148/42
f 73/148/43 74/147/43 76/149/43 75/150/43
f 75/150/44 76/149/44 78/151/44 77/152/44
f 77/152/45 78/151/45 80/153/45 79/154/45
f 79/154/46 80/153/46 82/155/46 81/156/46
f 81/156/47 82/155/47 84/157/47 83/158/47
f 83/158/48 84/157/48 86/159/48 85/160/48
f 72/161/49 70/162/49 88/163/49 86/164/49 84/165/49 82/166/49 80/167/49 78/168/49 76/169/49 74/170/49
f 85/160/50 86/159/50 88/171/50 87/172/50
f 87/172/51 88/171/51 70/173/51 69/174/51
f 69/175/52 71/176/52 73/177/52 75/178/52 77/179/52 79/180/52 81/181/52 83/182/52 85/183/52 87/184/52
f 89/185/41 90/186/41 92/187/41 91/188/41
f 91/188/42 92/187/42 94/189/42 93/190/42
f 93/190/43 94/189/43 96/191/43 95/192/43
f 95/192/44 96/191/44 98/193/44 97/194/44
f 97/194/45 98/193/45 100/195/45 99/196/45
f 99/196/46 100/195/46 102/197/46 101/198/46
f 101/198/47 102/197/47 104/199/47 103/200/47
f 103/200/48 104/199/48 106/201/48 105/202/48
f 92/203/49 90/204/49 108/205/49 106/206/49 104/207/49 102/208/49 100/209/49 98/210/49 96/211/49 94/212/49
f 105/202/50 106/201/50 108/213/50 107/214/50
f 107/214/51 108/213/51 90/215/51 89/216/51
f 89/217/52 91/218/52 93/219/52 95/220/52 97/221/52 99/222/52 101/223/52 103/224/52 105/225/52 107/226/52
