# Blender 4.3.2
# www.blender.org
mtllib decentra.mtl
g Car_Mesh
v 2.312262 0.153784 -1.300816
v 3.340784 -0.997727 -1.199989
v 2.303568 0.161314 1.319617
v 3.336331 -0.997152 1.218790
v 1.335310 1.000000 -0.827096
v 1.335310 -1.000000 -1.300816
v 1.335310 1.000000 0.845897
v 1.335310 -1.000000 1.319617
v -0.784284 1.000000 -0.827096
v -0.784284 -1.000000 -1.300816
v -0.784284 1.000000 0.845897
v -0.784284 -1.000000 1.319617
v -1.839348 0.181119 -1.300816
v -2.491151 -1.000000 -1.300816
v -1.839348 0.181119 1.319617
v -2.491151 -1.000000 1.319617
v 3.419218 0.126979 -1.300816
v 3.419219 0.126979 1.319617
v -3.367156 0.084353 -1.130846
v -3.987558 -1.000000 -1.300816
v -3.367156 0.084353 1.149647
v -3.987558 -1.000000 1.319617
v 3.647930 0.379084 -1.300816
v 1.335310 0.093862 -1.367906
v -0.784284 0.173360 -1.367906
v 3.647930 0.379084 1.319617
v 1.335310 0.157774 1.386707
v -0.784284 0.173361 1.386707
vn -0.0027 -0.0891 0.9960
vn -0.0000 0.1549 0.9879
vn -0.0000 1.0000 -0.0000
vn 0.9753 -0.2210 0.0018
vn 0.0502 -0.0425 -0.9978
vn 0.6547 0.7559 -0.0000
vn -0.0000 -1.0000 -0.0000
vn 0.0014 -1.0000 -0.0000
vn 0.0242 0.9997 -0.0000
vn -0.0000 -0.0000 -1.0000
vn -0.0491 0.5468 -0.8358
vn -0.0000 0.5475 0.8368
vn -0.0000 -0.0000 1.0000
vn -0.7406 0.6719 -0.0000
vn -0.8680 0.4966 -0.0000
vn -0.1143 0.0631 -0.9914
vn -0.0022 -0.0891 -0.9960
vn -0.0632 0.9980 -0.0000
vn -0.0000 0.5475 -0.8368
vn -0.6131 0.7900 -0.0000
vn 0.0275 0.5123 -0.8584
vn -0.0491 0.5468 0.8358
vn -0.0021 -0.0571 -0.9984
vn 0.0562 0.5395 0.8401
vn 0.1065 -0.0966 0.9896
vn 0.1059 -0.0961 -0.9897
vn -0.0000 -0.0579 0.9983
vn 0.0692 -0.0577 0.9959
vn 0.0721 -0.0611 -0.9955
vn 0.0503 -0.0420 0.9978
vn -0.1143 0.0631 0.9914
vn 0.9760 -0.2177 -0.0000
vn 0.0011 -1.0000 0.0002
vn 0.0308 0.9995 -0.0028
vn -0.0638 -0.0570 -0.9963
vn 0.0040 0.5403 0.8415
vn -0.0638 -0.0570 0.9963
vn -0.0000 0.1549 -0.9879
vn 0.0192 0.5124 -0.8585
vn -0.0000 -0.0612 -0.9981
vn -0.0004 -0.0571 0.9984
vt 0.155827 0.130128
vt 0.083256 0.003580
vt 0.034418 0.109903
vt 0.584745 0.048863
vt 0.650092 0.152751
vt 0.714703 0.063495
vt 0.193920 0.761253
vt 0.003580 0.911488
vt 0.003580 0.761253
vt 0.721900 0.229841
vt 0.848577 0.003580
vt 0.721862 0.012633
vt 0.261751 0.476335
vt 0.157172 0.384147
vt 0.095113 0.511619
vt 0.904561 0.629437
vt 0.713659 0.518778
vt 0.963189 0.521199
vt 0.527289 0.518778
vt 0.374012 0.754094
vt 0.374012 0.518778
vt 0.183672 0.754094
vt 0.003979 0.527833
vt 0.183672 0.518778
vt 0.042109 0.405359
vt 0.521745 0.359120
vt 0.441606 0.465088
vt 0.587201 0.451142
vt 0.903266 0.806338
vt 0.996420 0.817560
vt 0.967908 0.925211
vt 0.661667 0.518778
vt 0.527289 0.754094
vt 0.668826 0.818422
vt 0.766642 0.633385
vt 0.763131 0.804097
vt 0.436874 0.036805
vt 0.519355 0.143038
vt 0.007653 0.392155
vt 0.003580 0.122692
vt 0.834049 0.466107
vt 0.721862 0.246054
vt 0.834049 0.261318
vt 0.650124 0.348268
vt 0.996420 0.613132
vt 0.704630 0.930542
vt 0.251212 0.380884
vt 0.434100 0.365929
vt 0.679039 0.613290
vt 0.247398 0.131834
vt 0.253978 0.030407
vt 0.193920 0.911488
vt 0.848577 0.238895
vt 0.003580 0.745040
vt 0.661667 0.754094
vt 0.431433 0.137503
vt 0.721862 0.481370
vt 0.714703 0.435166
s 0
usemtl DecentraCarMaterial
f 3/1/1 4/2/1 18/3/1
f 16/4/2 21/5/2 22/6/2
f 9/7/3 7/8/3 5/9/3
f 2/10/4 26/11/4 4/12/4
f 6/13/5 1/14/5 2/15/5
f 5/16/6 3/17/6 1/18/6
f 16/19/7 10/20/7 12/21/7
f 6/22/8 4/23/8 8/24/8
f 1/14/9 18/3/9 17/25/9
f 13/26/10 10/27/10 14/28/10
f 9/29/11 25/30/11 13/31/11
f 22/32/7 14/33/7 16/19/7
f 28/34/12 7/35/12 11/36/12
f 12/37/13 15/38/13 16/4/13
f 23/39/14 18/3/14 26/40/14
f 19/41/15 22/42/15 21/43/15
f 14/28/16 19/44/16 13/26/16
f 1/14/17 17/25/17 2/15/17
f 19/44/18 15/38/18 13/26/18
f 5/16/19 25/30/19 9/29/19
f 13/31/20 11/36/20 9/29/20
f 1/18/21 24/45/21 5/16/21
f 15/46/22 28/34/22 11/36/22
f 24/47/23 10/27/23 25/48/23
f 27/49/24 3/17/24 7/35/24
f 4/2/25 26/40/25 18/3/25
f 17/25/26 23/39/26 2/15/26
f 27/50/27 12/37/27 8/51/27
f 3/1/28 27/50/28 8/51/28
f 6/13/29 24/47/29 1/14/29
f 12/21/7 6/22/7 8/24/7
f 3/1/30 8/51/30 4/2/30
f 16/4/31 15/38/31 21/5/31
f 9/7/3 11/52/3 7/8/3
f 2/10/32 23/53/32 26/11/32
f 5/16/6 7/35/6 3/17/6
f 16/19/7 14/33/7 10/20/7
f 6/22/33 2/54/33 4/23/33
f 1/14/34 3/1/34 18/3/34
f 13/26/35 25/48/35 10/27/35
f 22/32/7 20/55/7 14/33/7
f 28/34/36 27/49/36 7/35/36
f 12/37/37 28/56/37 15/38/37
f 23/39/14 17/25/14 18/3/14
f 19/41/15 20/57/15 22/42/15
f 14/28/38 20/58/38 19/44/38
f 19/44/18 21/5/18 15/38/18
f 5/16/39 24/45/39 25/30/39
f 13/31/20 15/46/20 11/36/20
f 24/47/40 6/13/40 10/27/40
f 27/50/41 28/56/41 12/37/41
f 12/21/7 10/20/7 6/22/7
g FrontWheelsRight_Mesh
v -2.486463 0.001872 -1.664348
v -2.486463 0.001872 -1.338501
v -2.089384 -0.127147 -1.664348
v -2.089384 -0.127147 -1.338501
v -1.843976 -0.464923 -1.664348
v -1.843976 -0.464923 -1.338501
v -1.843976 -0.882436 -1.664348
v -1.843976 -0.882437 -1.338501
v -2.089384 -1.220212 -1.664348
v -2.089384 -1.220212 -1.338501
v -2.486463 -1.349231 -1.664348
v -2.486463 -1.349231 -1.338501
v -2.883542 -1.220212 -1.664348
v -2.883542 -1.220212 -1.338501
v -3.128951 -0.882436 -1.664348
v -3.128951 -0.882437 -1.338501
v -3.128951 -0.464923 -1.664348
v -3.128951 -0.464923 -1.338501
v -2.883542 -0.127147 -1.664348
v -2.883542 -0.127147 -1.338501
vn 0.3090 0.9511 -0.0000
vn 0.8090 0.5878 -0.0000
vn 1.0000 -0.0000 -0.0000
vn 0.8090 -0.5878 -0.0000
vn 0.3090 -0.9511 -0.0000
vn -0.3090 -0.9511 -0.0000
vn -0.8090 -0.5878 -0.0000
vn -1.0000 -0.0000 -0.0000
vn -0.0000 -0.0000 1.0000
vn -0.8090 0.5878 -0.0000
vn -0.3090 0.9511 -0.0000
vn -0.0000 -0.0000 -1.0000
vt 1.000000 1.000000
vt 0.900000 0.500000
vt 1.000000 0.500000
vt 0.900000 1.000000
vt 0.800000 0.500000
vt 0.800000 1.000000
vt 0.700000 0.500000
vt 0.700000 1.000000
vt 0.600000 0.500000
vt 0.600000 1.000000
vt 0.500000 0.500000
vt 0.500000 1.000000
vt 0.400000 0.500000
vt 0.400000 1.000000
vt 0.300000 0.500000
vt 0.300000 1.000000
vt 0.200000 0.500000
vt 0.021746 0.324164
vt 0.391068 0.055836
vt 0.478254 0.324164
vt 0.100000 1.000000
vt 0.100000 0.500000
vt -0.000000 0.500000
vt 0.978254 0.175836
vt 0.521746 0.175836
vt 0.608932 0.444164
vt 0.200000 1.000000
vt 0.391068 0.444164
vt 0.250000 0.490000
vt 0.108932 0.444164
vt 0.021746 0.175836
vt 0.108932 0.055836
vt 0.250000 0.010000
vt 0.478254 0.175836
vt -0.000000 1.000000
vt 0.750000 0.490000
vt 0.891068 0.444164
vt 0.978254 0.324164
vt 0.891068 0.055836
vt 0.750000 0.010000
vt 0.608932 0.055836
vt 0.521746 0.324164
s 0
usemtl DecentraWheelMaterial
f 30/59/42 31/60/42 29/61/42
f 32/62/43 33/63/43 31/60/43
f 34/64/44 35/65/44 33/63/44
f 36/66/45 37/67/45 35/65/45
f 38/68/46 39/69/46 37/67/46
f 40/70/47 41/71/47 39/69/47
f 42/72/48 43/73/48 41/71/48
f 44/74/49 45/75/49 43/73/49
f 46/76/50 38/77/50 34/78/50
f 45/75/51 48/79/51 47/80/51
f 48/79/52 29/81/52 47/80/52
f 35/82/53 43/83/53 47/84/53
f 30/59/42 32/62/42 31/60/42
f 32/62/43 34/64/43 33/63/43
f 34/64/44 36/66/44 35/65/44
f 36/66/45 38/68/45 37/67/45
f 38/68/46 40/70/46 39/69/46
f 40/70/47 42/72/47 41/71/47
f 42/72/48 44/74/48 43/73/48
f 44/74/49 46/85/49 45/75/49
f 34/78/50 32/86/50 30/87/50
f 30/87/50 48/88/50 46/76/50
f 46/76/50 44/89/50 42/90/50
f 42/90/50 40/91/50 38/77/50
f 38/77/50 36/92/50 34/78/50
f 34/78/50 30/87/50 46/76/50
f 46/76/50 42/90/50 38/77/50
f 45/75/51 46/85/51 48/79/51
f 48/79/52 30/93/52 29/81/52
f 47/84/53 29/94/53 31/95/53
f 31/95/53 33/96/53 35/82/53
f 35/82/53 37/97/53 39/98/53
f 39/98/53 41/99/53 43/83/53
f 43/83/53 45/100/53 47/84/53
f 47/84/53 31/95/53 35/82/53
f 35/82/53 39/98/53 43/83/53
g RearWheelsRight_Mesh
v 2.119117 0.001872 -1.689174
v 2.119117 0.001872 -1.358538
v 2.516196 -0.127147 -1.689174
v 2.516196 -0.127147 -1.358538
v 2.761604 -0.464923 -1.689174
v 2.761604 -0.464923 -1.358538
v 2.761604 -0.882436 -1.689174
v 2.761604 -0.882437 -1.358538
v 2.516196 -1.220212 -1.689174
v 2.516196 -1.220212 -1.358538
v 2.119117 -1.349231 -1.689174
v 2.119117 -1.349231 -1.358538
v 1.722038 -1.220212 -1.689174
v 1.722038 -1.220212 -1.358538
v 1.476630 -0.882436 -1.689174
v 1.476630 -0.882437 -1.358538
v 1.476630 -0.464923 -1.689174
v 1.476630 -0.464923 -1.358538
v 1.722038 -0.127147 -1.689174
v 1.722038 -0.127147 -1.358538
vn 0.3090 0.9511 -0.0000
vn 0.8090 0.5878 -0.0000
vn 1.0000 -0.0000 -0.0000
vn 0.8090 -0.5878 -0.0000
vn 0.3090 -0.9511 -0.0000
vn -0.3090 -0.9511 -0.0000
vn -0.8090 -0.5878 -0.0000
vn -1.0000 -0.0000 -0.0000
vn -0.0000 -0.0000 1.0000
vn -0.8090 0.5878 -0.0000
vn -0.3090 0.9511 -0.0000
vn -0.0000 -0.0000 -1.0000
vt 1.000000 1.000000
vt 0.900000 0.500000
vt 1.000000 0.500000
vt 0.900000 1.000000
vt 0.800000 0.500000
vt 0.800000 1.000000
vt 0.700000 0.500000
vt 0.700000 1.000000
vt 0.600000 0.500000
vt 0.600000 1.000000
vt 0.500000 0.500000
vt 0.500000 1.000000
vt 0.400000 0.500000
vt 0.400000 1.000000
vt 0.300000 0.500000
vt 0.300000 1.000000
vt 0.200000 0.500000
vt 0.021746 0.324164
vt 0.391068 0.055836
vt 0.478254 0.324164
vt 0.200000 1.000000
vt 0.100000 0.500000
vt 0.100000 1.000000
vt -0.000000 0.500000
vt 0.978254 0.175836
vt 0.521746 0.175836
vt 0.608932 0.444164
vt 0.391068 0.444164
vt 0.250000 0.490000
vt 0.108932 0.444164
vt 0.021746 0.175836
vt 0.108932 0.055836
vt 0.250000 0.010000
vt 0.478254 0.175836
vt -0.000000 1.000000
vt 0.750000 0.490000
vt 0.891068 0.444164
vt 0.978254 0.324164
vt 0.891068 0.055836
vt 0.750000 0.010000
vt 0.608932 0.055836
vt 0.521746 0.324164
s 0
usemtl DecentraWheelMaterial
f 50/101/54 51/102/54 49/103/54
f 52/104/55 53/105/55 51/102/55
f 54/106/56 55/107/56 53/105/56
f 56/108/57 57/109/57 55/107/57
f 58/110/58 59/111/58 57/109/58
f 60/112/59 61/113/59 59/111/59
f 62/114/60 63/115/60 61/113/60
f 64/116/61 65/117/61 63/115/61
f 66/118/62 58/119/62 54/120/62
f 66/121/63 67/122/63 65/117/63
f 68/123/64 49/124/64 67/122/64
f 55/125/65 63/126/65 67/127/65
f 50/101/54 52/104/54 51/102/54
f 52/104/55 54/106/55 53/105/55
f 54/106/56 56/108/56 55/107/56
f 56/108/57 58/110/57 57/109/57
f 58/110/58 60/112/58 59/111/58
f 60/112/59 62/114/59 61/113/59
f 62/114/60 64/116/60 63/115/60
f 64/116/61 66/121/61 65/117/61
f 54/120/62 52/128/62 50/129/62
f 50/129/62 68/130/62 66/118/62
f 66/118/62 64/131/62 62/132/62
f 62/132/62 60/133/62 58/119/62
f 58/119/62 56/134/62 54/120/62
f 54/120/62 50/129/62 66/118/62
f 66/118/62 62/132/62 58/119/62
f 66/121/63 68/123/63 67/122/63
f 68/123/64 50/135/64 49/124/64
f 67/127/65 49/136/65 51/137/65
f 51/137/65 53/138/65 55/125/65
f 55/125/65 57/139/65 59/140/65
f 59/140/65 61/141/65 63/126/65
f 63/126/65 65/142/65 67/127/65
f 67/127/65 51/137/65 55/125/65
f 55/125/65 59/140/65 63/126/65
g FrontWheelsLeft_Mesh
v -2.482019 0.004466 1.388826
v -2.482019 0.004466 1.714673
v -2.084940 -0.124553 1.388826
v -2.084940 -0.124553 1.714673
v -1.839532 -0.462329 1.388826
v -1.839532 -0.462329 1.714673
v -1.839532 -0.879842 1.388826
v -1.839532 -0.879842 1.714673
v -2.084940 -1.217618 1.388826
v -2.084940 -1.217618 1.714673
v -2.482019 -1.346637 1.388826
v -2.482019 -1.346637 1.714673
v -2.879098 -1.217618 1.388826
v -2.879098 -1.217618 1.714673
v -3.124506 -0.879842 1.388826
v -3.124506 -0.879842 1.714673
v -3.124506 -0.462328 1.388826
v -3.124506 -0.462328 1.714673
v -2.879097 -0.124553 1.388826
v -2.879097 -0.124553 1.714673
vn 0.3090 0.9511 -0.0000
vn 0.8090 0.5878 -0.0000
vn 1.0000 -0.0000 -0.0000
vn 0.8090 -0.5878 -0.0000
vn 0.3090 -0.9511 -0.0000
vn -0.3090 -0.9511 -0.0000
vn -0.8090 -0.5878 -0.0000
vn -1.0000 -0.0000 -0.0000
vn -0.0000 -0.0000 1.0000
vn -0.8090 0.5878 -0.0000
vn -0.3090 0.9511 -0.0000
vn -0.0000 -0.0000 -1.0000
vt 1.000000 1.000000
vt 0.900000 0.500000
vt 1.000000 0.500000
vt 0.900000 1.000000
vt 0.800000 0.500000
vt 0.800000 1.000000
vt 0.700000 0.500000
vt 0.700000 1.000000
vt 0.600000 0.500000
vt 0.600000 1.000000
vt 0.500000 0.500000
vt 0.500000 1.000000
vt 0.400000 0.500000
vt 0.400000 1.000000
vt 0.300000 0.500000
vt 0.300000 1.000000
vt 0.200000 0.500000
vt 0.021746 0.324164
vt 0.391068 0.055836
vt 0.478254 0.324164
vt 0.100000 1.000000
vt 0.100000 0.500000
vt -0.000000 0.500000
vt 0.978254 0.175836
vt 0.521746 0.175836
vt 0.608932 0.444164
vt 0.200000 1.000000
vt 0.391068 0.444164
vt 0.250000 0.490000
vt 0.108932 0.444164
vt 0.021746 0.175836
vt 0.108932 0.055836
vt 0.250000 0.010000
vt 0.478254 0.175836
vt -0.000000 1.000000
vt 0.750000 0.490000
vt 0.891068 0.444164
vt 0.978254 0.324164
vt 0.891068 0.055836
vt 0.750000 0.010000
vt 0.608932 0.055836
vt 0.521746 0.324164
s 0
usemtl DecentraWheelMaterial
f 70/143/66 71/144/66 69/145/66
f 72/146/67 73/147/67 71/144/67
f 74/148/68 75/149/68 73/147/68
f 76/150/69 77/151/69 75/149/69
f 78/152/70 79/153/70 77/151/70
f 80/154/71 81/155/71 79/153/71
f 82/156/72 83/157/72 81/155/72
f 84/158/73 85/159/73 83/157/73
f 86/160/74 78/161/74 74/162/74
f 85/159/75 88/163/75 87/164/75
f 88/163/76 69/165/76 87/164/76
f 75/166/77 83/167/77 87/168/77
f 70/143/66 72/146/66 71/144/66
f 72/146/67 74/148/67 73/147/67
f 74/148/68 76/150/68 75/149/68
f 76/150/69 78/152/69 77/151/69
f 78/152/70 80/154/70 79/153/70
f 80/154/71 82/156/71 81/155/71
f 82/156/72 84/158/72 83/157/72
f 84/158/73 86/169/73 85/159/73
f 74/162/74 72/170/74 70/171/74
f 70/171/74 88/172/74 86/160/74
f 86/160/74 84/173/74 82/174/74
f 82/174/74 80/175/74 78/161/74
f 78/161/74 76/176/74 74/162/74
f 74/162/74 70/171/74 86/160/74
f 86/160/74 82/174/74 78/161/74
f 85/159/75 86/169/75 88/163/75
f 88/163/76 70/177/76 69/165/76
f 87/168/77 69/178/77 71/179/77
f 71/179/77 73/180/77 75/166/77
f 75/166/77 77/181/77 79/182/77
f 79/182/77 81/183/77 83/167/77
f 83/167/77 85/184/77 87/168/77
f 87/168/77 71/179/77 75/166/77
f 75/166/77 79/182/77 83/167/77
g RearWheelsLeft_Mesh
v 2.123561 0.004466 1.408863
v 2.123561 0.004466 1.739499
v 2.520640 -0.124553 1.408863
v 2.520640 -0.124553 1.739499
v 2.766048 -0.462329 1.408863
v 2.766048 -0.462329 1.739499
v 2.766048 -0.879842 1.408863
v 2.766048 -0.879842 1.739499
v 2.520640 -1.217618 1.408863
v 2.520640 -1.217618 1.739499
v 2.123561 -1.346637 1.408863
v 2.123561 -1.346637 1.739499
v 1.726482 -1.217618 1.408863
v 1.726482 -1.217618 1.739499
v 1.481074 -0.879842 1.408863
v 1.481074 -0.879842 1.739499
v 1.481074 -0.462328 1.408863
v 1.481074 -0.462328 1.739499
v 1.726483 -0.124553 1.408863
v 1.726483 -0.124553 1.739499
vn 0.3090 0.9511 -0.0000
vn 0.8090 0.5878 -0.0000
vn 1.0000 -0.0000 -0.0000
vn 0.8090 -0.5878 -0.0000
vn 0.3090 -0.9511 -0.0000
vn -0.3090 -0.9511 -0.0000
vn -0.8090 -0.5878 -0.0000
vn -1.0000 -0.0000 -0.0000
vn -0.0000 -0.0000 1.0000
vn -0.8090 0.5878 -0.0000
vn -0.3090 0.9511 -0.0000
vn -0.0000 -0.0000 -1.0000
vt 1.000000 1.000000
vt 0.900000 0.500000
vt 1.000000 0.500000
vt 0.800000 1.000000
vt 0.800000 0.500000
vt 0.700000 0.500000
vt 0.700000 1.000000
vt 0.600000 0.500000
vt 0.600000 1.000000
vt 0.500000 0.500000
vt 0.500000 1.000000
vt 0.400000 0.500000
vt 0.400000 1.000000
vt 0.300000 0.500000
vt 0.300000 1.000000
vt 0.200000 0.500000
vt 0.021746 0.324164
vt 0.391068 0.055836
vt 0.478254 0.324164
vt 0.200000 1.000000
vt 0.100000 0.500000
vt 0.100000 1.000000
vt -0.000000 0.500000
vt 0.978254 0.175836
vt 0.521746 0.175836
vt 0.608932 0.444164
vt 0.900000 1.000000
vt 0.391068 0.444164
vt 0.250000 0.490000
vt 0.108932 0.444164
vt 0.021746 0.175836
vt 0.108932 0.055836
vt 0.250000 0.010000
vt 0.478254 0.175836
vt -0.000000 1.000000
vt 0.750000 0.490000
vt 0.891068 0.444164
vt 0.978254 0.324164
vt 0.891068 0.055836
vt 0.750000 0.010000
vt 0.608932 0.055836
vt 0.521746 0.324164
s 0
usemtl DecentraWheelMaterial
f 90/185/78 91/186/78 89/187/78
f 91/186/79 94/188/79 93/189/79
f 94/188/80 95/190/80 93/189/80
f 96/191/81 97/192/81 95/190/81
f 98/193/82 99/194/82 97/192/82
f 100/195/83 101/196/83 99/194/83
f 102/197/84 103/198/84 101/196/84
f 104/199/85 105/200/85 103/198/85
f 106/201/86 98/202/86 94/203/86
f 106/204/87 107/205/87 105/200/87
f 108/206/88 89/207/88 107/205/88
f 95/208/89 103/209/89 107/210/89
f 90/185/78 92/211/78 91/186/78
f 91/186/79 92/211/79 94/188/79
f 94/188/80 96/191/80 95/190/80
f 96/191/81 98/193/81 97/192/81
f 98/193/82 100/195/82 99/194/82
f 100/195/83 102/197/83 101/196/83
f 102/197/84 104/199/84 103/198/84
f 104/199/85 106/204/85 105/200/85
f 94/203/86 92/212/86 90/213/86
f 90/213/86 108/214/86 106/201/86
f 106/201/86 104/215/86 102/216/86
f 102/216/86 100/217/86 98/202/86
f 98/202/86 96/218/86 94/203/86
f 94/203/86 90/213/86 106/201/86
f 106/201/86 102/216/86 98/202/86
f 106/204/87 108/206/87 107/205/87
f 108/206/88 90/219/88 89/207/88
f 107/210/89 89/220/89 91/221/89
f 91/221/89 93/222/89 95/208/89
f 95/208/89 97/223/89 99/224/89
f 99/224/89 101/225/89 103/209/89
f 103/209/89 105/226/89 107/210/89
f 107/210/89 91/221/89 95/208/89
f 95/208/89 99/224/89 103/209/89
