# Blender 4.3.2
# www.blender.org
mtllib oldsroyal.mtl
o Cube
v 2.548964 -0.051238 -0.431986
v 2.548964 -0.837507 -0.431986
v 2.548964 -0.051238 0.782381
v 2.548964 -0.837507 0.782381
v -3.422552 0.222137 -0.399434
v -3.872306 -1.038811 -0.455344
v -3.422552 0.222137 0.749829
v -3.872306 -1.038811 0.805739
v 0.444187 0.299754 0.973941
v 0.428226 0.299627 -0.623547
v 0.454603 0.306505 -0.429682
v 0.441827 0.299735 0.785594
v 1.179430 0.506255 -0.434513
v 1.174284 0.502495 0.790415
v -0.477622 0.467304 0.776172
v -0.487898 0.467383 -0.437414
v 0.451601 -0.763212 -0.429666
v 0.438825 -0.769981 0.785610
v 1.176428 -0.563462 -0.434496
v 1.171282 -0.567222 0.790431
v -0.919753 -0.720590 0.776188
v -0.930045 -0.720511 -0.439244
v 0.430504 -0.946729 0.973941
v 0.415045 -0.946616 -0.623547
v 3.956969 -0.529823 0.175197
v -0.500533 0.492685 -0.399385
v -0.500533 0.492685 0.749878
v -0.369172 0.776137 -0.340022
v -0.368817 0.776097 0.085422
v -0.500533 0.492685 0.145588
v -0.482678 0.467343 0.179117
v -0.369172 0.776137 -0.340022
v -0.368817 0.776097 0.085422
vn 0.1403 0.3405 -0.9297
vn 0.0901 -0.0000 0.9959
vn -0.9419 0.3359 -0.0000
vn 0.0215 -0.9998 -0.0000
vn -0.0404 0.0586 -0.9975
vn -0.0580 0.6119 0.7888
vn 0.0068 -0.0026 -1.0000
vn -0.0082 -0.0000 1.0000
vn -0.2668 0.9637 0.0026
vn 0.0363 0.9993 0.0059
vn 0.0066 -0.0000 -1.0000
vn 0.0067 -0.0000 1.0000
vn 0.9372 -0.3488 -0.0080
vn -1.0000 0.0028 -0.0042
vn 0.0515 -0.9987 -0.0000
vn -0.0402 0.0586 0.9975
vn 0.0894 -0.0000 -0.9960
vn 0.3960 -0.0000 -0.9183
vn 0.3960 -0.0000 0.9183
vn 0.3218 0.9468 -0.0000
vn 0.2135 -0.9769 -0.0000
vn -0.0590 0.5797 -0.8127
vn -0.7184 0.4449 -0.5347
vn -0.2657 0.9641 0.0019
vn 0.3770 0.9262 -0.0000
vn -0.2668 0.9637 0.0032
vn 0.1408 0.3360 0.9313
vn -0.6224 0.4283 0.6552
vn 0.8175 0.5760 -0.0000
vn -0.0639 0.6896 0.7213
vn -0.0922 0.9957 -0.0000
vn -0.9068 0.4215 -0.0000
vn 0.9382 -0.3462 -0.0008
vn -0.0758 0.8184 -0.5697
vn 0.0905 -0.0010 0.9959
vn 0.0214 -0.9998 -0.0003
vn -0.0581 0.0006 -0.9983
vn 0.1793 0.9838 -0.0023
vn 0.0102 -0.0000 -0.9999
vn -0.0069 0.0010 1.0000
vn -0.2657 0.9641 0.0018
vn 0.0309 0.9995 -0.0002
vn 0.0511 -0.9987 -0.0006
vn -0.0579 0.0006 0.9983
vn 0.0898 -0.0009 -0.9960
vn 0.1684 0.9840 -0.0578
vn 0.3737 0.9276 0.0044
vn 0.7455 0.6665 -0.0063
vn -0.9074 0.4203 0.0008
vn 0.9342 -0.3567 -0.0079
vt 0.204807 0.347750
vt 0.448253 0.371098
vt 0.364069 0.326654
vt 0.201725 0.193669
vt 0.426882 0.000243
vt 0.152508 0.103527
vt 0.467846 0.739865
vt 0.634990 0.890330
vt 0.634990 0.732884
vt 0.446950 0.532951
vt 0.982350 0.711398
vt 0.982350 0.553951
vt 0.918882 0.346838
vt 0.430767 0.532465
vt 0.987973 0.506702
vt 0.448328 0.163368
vt 0.569135 0.196958
vt 0.918813 0.186141
vt 0.313939 0.939180
vt 0.157062 0.828071
vt 0.166839 0.997524
vt 0.156575 0.791528
vt 0.000243 0.905216
vt 0.133752 0.908703
vt 0.314425 0.999058
vt 0.466469 0.905467
vt 0.314736 0.904170
vt 0.315615 0.734437
vt 0.290578 0.824852
vt 0.180423 0.736103
vt 0.023066 0.996269
vt 0.156575 0.999757
vt 0.712683 0.891355
vt 0.787228 0.733321
vt 0.635476 0.732884
vt 0.921268 0.885819
vt 0.787714 0.733298
vt 0.787714 0.886232
vt 0.445021 0.732398
vt 0.180182 0.556864
vt 0.180180 0.708478
vt 0.987973 0.025677
vt 0.158737 0.438079
vt 0.000243 0.274210
vt 0.000243 0.632669
vt 0.565258 0.338363
vt 0.962109 0.732884
vt 0.921755 0.762824
vt 0.927308 0.779216
vt 0.447277 0.344751
vt 0.363099 0.209588
vt 0.451531 0.189111
vt 0.962109 0.895154
vt 0.936582 0.844832
vt 0.923099 0.864823
vt 0.572961 0.202225
vt 0.562335 0.267081
vt 0.565663 0.271621
vt 0.566899 0.332602
vt 0.828709 0.886719
vt 0.826684 0.892278
vt 0.787714 0.899869
vt 0.828709 0.965755
vt 0.787944 0.952985
vt 0.826997 0.960317
vt 0.870459 0.886719
vt 0.829196 0.951413
vt 0.829340 0.898297
vt 0.467846 0.883350
vt 0.009593 0.732884
vt 0.467359 0.999333
vt 0.467359 0.732884
vt 0.313939 0.732884
vt 0.635707 0.891133
vt 0.787228 0.891570
vt 0.921268 0.732884
vt 0.870459 0.963695
s 0
usemtl Material
f 1/1/1 10/2/1 13/3/1
f 3/4/2 23/5/2 4/6/2
f 7/7/3 6/8/3 8/9/3
f 24/10/4 8/11/4 6/12/4
f 5/13/5 24/14/5 6/15/5
f 9/16/6 15/17/6 7/18/6
f 15/19/7 18/20/7 21/21/7
f 16/22/8 17/23/8 11/24/8
f 20/25/9 17/26/9 18/27/9
f 17/26/10 21/28/10 18/27/10
f 12/29/11 20/30/11 18/20/11
f 11/24/12 19/31/12 13/32/12
f 31/33/13 21/34/13 22/35/13
f 14/36/14 19/37/14 20/38/14
f 23/39/15 2/40/15 4/41/15
f 23/5/16 7/18/16 8/42/16
f 24/14/17 1/1/17 2/43/17
f 25/44/18 2/43/18 1/1/18
f 3/4/19 4/6/19 25/44/19
f 1/1/20 3/4/20 25/44/20
f 4/41/21 2/40/21 25/45/21
f 16/46/22 10/2/22 5/13/22
f 16/47/23 26/48/23 28/49/23
f 13/3/24 10/2/24 11/50/24
f 13/3/25 3/4/25 1/1/25
f 9/16/26 14/51/26 12/52/26
f 3/4/27 14/51/27 9/16/27
f 31/53/28 29/54/28 30/55/28
f 27/56/29 31/57/29 30/58/29
f 7/18/30 15/17/30 27/56/30
f 7/18/31 27/56/31 30/58/31
f 29/54/32 26/48/32 30/55/32
f 31/53/33 28/49/33 29/54/33
f 26/59/34 16/46/34 5/13/34
f 16/60/23 26/61/23 32/62/23
f 31/63/28 33/64/28 30/65/28
f 33/64/32 26/61/32 30/65/32
f 31/66/33 32/67/33 33/68/33
f 3/4/35 9/16/35 23/5/35
f 7/7/3 5/69/3 6/8/3
f 24/10/36 23/39/36 8/11/36
f 5/13/37 10/2/37 24/14/37
f 9/16/38 12/52/38 15/17/38
f 15/19/39 12/29/39 18/20/39
f 16/22/40 22/70/40 17/23/40
f 20/25/41 19/71/41 17/26/41
f 17/26/42 22/72/42 21/28/42
f 12/29/11 14/73/11 20/30/11
f 11/24/12 17/23/12 19/31/12
f 22/35/13 16/74/13 31/33/13
f 31/33/13 15/75/13 21/34/13
f 14/36/14 13/76/14 19/37/14
f 23/39/43 24/10/43 2/40/43
f 23/5/44 9/16/44 7/18/44
f 24/14/45 10/2/45 1/1/45
f 16/46/46 11/50/46 10/2/46
f 13/3/47 14/51/47 3/4/47
f 27/56/48 15/17/48 31/57/48
f 26/59/31 5/13/31 30/58/31
f 5/13/31 7/18/31 30/58/31
f 29/54/49 28/49/49 26/48/49
f 31/53/50 16/47/50 28/49/50
f 33/64/49 32/62/49 26/61/49
f 31/66/50 16/77/50 32/67/50
o FrontWheels
v 1.183299 -0.112436 -1.051992
v 1.183299 -0.112436 -0.826638
v 1.551117 0.344601 -1.051992
v 1.551118 0.344601 -0.826638
v 2.117329 0.498154 -1.051992
v 2.117328 0.498154 -0.826638
v 2.665659 0.289570 -1.051992
v 2.665659 0.289570 -0.826638
v 2.986665 -0.201479 -1.051992
v 2.986665 -0.201479 -0.826638
v 2.957733 -0.787427 -1.051992
v 2.957733 -0.787427 -0.826638
v 2.589915 -1.244464 -1.051992
v 2.589915 -1.244464 -0.826638
v 2.023704 -1.398017 -1.051992
v 2.023704 -1.398017 -0.826638
v 1.475373 -1.189433 -1.051992
v 1.475373 -1.189433 -0.826638
v 1.154367 -0.698385 -1.051992
v 1.154367 -0.698385 -0.826638
v 1.182232 -0.112606 1.185519
v 1.182232 -0.112606 1.391924
v 1.550050 0.344431 1.185519
v 1.550051 0.344431 1.391924
v 2.116262 0.497983 1.185519
v 2.116262 0.497983 1.391924
v 2.664592 0.289399 1.185519
v 2.664592 0.289399 1.391923
v 2.985598 -0.201649 1.185519
v 2.985599 -0.201649 1.391923
v 2.956667 -0.787598 1.185519
v 2.956667 -0.787598 1.391924
v 2.588848 -1.244635 1.185519
v 2.588848 -1.244635 1.391924
v 2.022637 -1.398187 1.185519
v 2.022637 -1.398187 1.391924
v 1.474306 -1.189603 1.185519
v 1.474306 -1.189603 1.391924
v 1.153300 -0.698555 1.185519
v 1.153300 -0.698555 1.391924
vn -0.7790 0.6270 -0.0000
vn -0.2617 0.9651 -0.0000
vn 0.3555 0.9347 -0.0000
vn 0.8370 0.5472 -0.0000
vn 0.9988 -0.0493 -0.0000
vn 0.7790 -0.6270 -0.0000
vn 0.2617 -0.9651 -0.0000
vn -0.3555 -0.9347 -0.0000
vn -0.0000 -0.0000 1.0000
vn -0.8370 -0.5472 -0.0000
vn -0.9988 0.0493 -0.0000
vn -0.0000 -0.0000 -1.0000
vt 1.000000 1.000000
vt 0.900000 0.500000
vt 1.000000 0.500000
vt 0.900000 1.000000
vt 0.800000 0.500000
vt 0.800000 1.000000
vt 0.700000 0.500000
vt 0.700000 1.000000
vt 0.600000 0.500000
vt 0.500000 1.000000
vt 0.500000 0.500000
vt 0.400000 0.500000
vt 0.400000 1.000000
vt 0.300000 0.500000
vt 0.300000 1.000000
vt 0.200000 0.500000
vt 0.021746 0.324164
vt 0.391068 0.055836
vt 0.478254 0.324164
vt 0.200000 1.000000
vt 0.100000 0.500000
vt 0.100000 1.000000
vt -0.000000 0.500000
vt 0.978254 0.175836
vt 0.521746 0.175836
vt 0.608932 0.444164
vt 0.600000 1.000000
vt 0.391068 0.444164
vt 0.250000 0.490000
vt 0.108932 0.444164
vt 0.021746 0.175836
vt 0.108932 0.055836
vt 0.250000 0.010000
vt 0.478254 0.175836
vt -0.000000 1.000000
vt 0.750000 0.490000
vt 0.891068 0.444164
vt 0.978254 0.324164
vt 0.891068 0.055836
vt 0.750000 0.010000
vt 0.608932 0.055836
vt 0.521746 0.324164
s 0
usemtl DecentraWheelMaterial.001
f 35/78/51 36/79/51 34/80/51
f 37/81/52 38/82/52 36/79/52
f 39/83/53 40/84/53 38/82/53
f 41/85/54 42/86/54 40/84/54
f 42/86/55 45/87/55 44/88/55
f 45/87/56 46/89/56 44/88/56
f 47/90/57 48/91/57 46/89/57
f 49/92/58 50/93/58 48/91/58
f 51/94/59 43/95/59 39/96/59
f 51/97/60 52/98/60 50/93/60
f 53/99/61 34/100/61 52/98/61
f 40/101/62 48/102/62 52/103/62
f 55/78/51 56/79/51 54/80/51
f 57/81/52 58/82/52 56/79/52
f 59/83/53 60/84/53 58/82/53
f 61/85/54 62/86/54 60/84/54
f 63/104/55 64/88/55 62/86/55
f 65/87/56 66/89/56 64/88/56
f 66/89/57 69/92/57 68/91/57
f 68/91/58 71/97/58 70/93/58
f 71/94/59 63/95/59 59/96/59
f 71/97/60 72/98/60 70/93/60
f 73/99/61 54/100/61 72/98/61
f 60/101/62 68/102/62 72/103/62
f 35/78/51 37/81/51 36/79/51
f 37/81/52 39/83/52 38/82/52
f 39/83/53 41/85/53 40/84/53
f 41/85/54 43/104/54 42/86/54
f 42/86/55 43/104/55 45/87/55
f 45/87/56 47/90/56 46/89/56
f 47/90/57 49/92/57 48/91/57
f 49/92/58 51/97/58 50/93/58
f 39/96/59 37/105/59 35/106/59
f 35/106/59 53/107/59 51/94/59
f 51/94/59 49/108/59 47/109/59
f 47/109/59 45/110/59 43/95/59
f 43/95/59 41/111/59 39/96/59
f 39/96/59 35/106/59 51/94/59
f 51/94/59 47/109/59 43/95/59
f 51/97/60 53/99/60 52/98/60
f 53/99/61 35/112/61 34/100/61
f 52/103/62 34/113/62 36/114/62
f 36/114/62 38/115/62 40/101/62
f 40/101/62 42/116/62 44/117/62
f 44/117/62 46/118/62 48/102/62
f 48/102/62 50/119/62 52/103/62
f 52/103/62 36/114/62 40/101/62
f 40/101/62 44/117/62 48/102/62
f 55/78/51 57/81/51 56/79/51
f 57/81/52 59/83/52 58/82/52
f 59/83/53 61/85/53 60/84/53
f 61/85/54 63/104/54 62/86/54
f 63/104/55 65/87/55 64/88/55
f 65/87/56 67/90/56 66/89/56
f 66/89/57 67/90/57 69/92/57
f 68/91/58 69/92/58 71/97/58
f 59/96/59 57/105/59 55/106/59
f 55/106/59 73/107/59 71/94/59
f 71/94/59 69/108/59 67/109/59
f 67/109/59 65/110/59 63/95/59
f 63/95/59 61/111/59 59/96/59
f 59/96/59 55/106/59 71/94/59
f 71/94/59 67/109/59 63/95/59
f 71/97/60 73/99/60 72/98/60
f 73/99/61 55/112/61 54/100/61
f 72/103/62 54/113/62 56/114/62
f 56/114/62 58/115/62 60/101/62
f 60/101/62 62/116/62 64/117/62
f 64/117/62 66/118/62 68/102/62
f 68/102/62 70/119/62 72/103/62
f 72/103/62 56/114/62 60/101/62
f 60/101/62 64/117/62 68/102/62
o FrontWheels.001
v -2.431537 0.498756 -1.051992
v -2.431537 0.498756 -0.826638
v -1.873587 0.317467 -1.051992
v -1.873587 0.317466 -0.826638
v -1.528755 -0.157154 -1.051992
v -1.528755 -0.157154 -0.826638
v -1.528755 -0.743817 -1.051992
v -1.528755 -0.743817 -0.826638
v -1.873587 -1.218437 -1.051992
v -1.873587 -1.218437 -0.826638
v -2.431537 -1.399726 -1.051992
v -2.431537 -1.399726 -0.826638
v -2.989486 -1.218437 -1.051992
v -2.989486 -1.218437 -0.826638
v -3.334318 -0.743817 -1.051992
v -3.334318 -0.743817 -0.826638
v -3.334318 -0.157153 -1.051992
v -3.334318 -0.157154 -0.826638
v -2.989486 0.317467 -1.051992
v -2.989486 0.317467 -0.826638
v -2.432076 0.499692 1.185519
v -2.432076 0.499692 1.391924
v -1.874126 0.318403 1.185519
v -1.874126 0.318403 1.391924
v -1.529294 -0.156217 1.185519
v -1.529294 -0.156217 1.391924
v -1.529294 -0.742880 1.185519
v -1.529294 -0.742880 1.391924
v -1.874126 -1.217500 1.185519
v -1.874126 -1.217501 1.391924
v -2.432076 -1.398790 1.185519
v -2.432076 -1.398790 1.391924
v -2.990025 -1.217500 1.185519
v -2.990025 -1.217500 1.391924
v -3.334856 -0.742880 1.185519
v -3.334856 -0.742880 1.391924
v -3.334856 -0.156217 1.185519
v -3.334856 -0.156217 1.391924
v -2.990024 0.318403 1.185519
v -2.990024 0.318403 1.391924
vn 0.3090 0.9511 -0.0000
vn 0.8090 0.5878 -0.0000
vn 1.0000 -0.0000 -0.0000
vn 0.8090 -0.5878 -0.0000
vn 0.3090 -0.9511 -0.0000
vn -0.3090 -0.9511 -0.0000
vn -0.8090 -0.5878 -0.0000
vn -1.0000 -0.0000 -0.0000
vn -0.0000 -0.0000 1.0000
vn -0.8090 0.5878 -0.0000
vn -0.3090 0.9511 -0.0000
vn -0.0000 -0.0000 -1.0000
vt 1.000000 1.000000
vt 0.900000 0.500000
vt 1.000000 0.500000
vt 0.900000 1.000000
vt 0.800000 0.500000
vt 0.700000 1.000000
vt 0.700000 0.500000
vt 0.600000 0.500000
vt 0.600000 1.000000
vt 0.500000 0.500000
vt 0.500000 1.000000
vt 0.400000 0.500000
vt 0.400000 1.000000
vt 0.300000 0.500000
vt 0.300000 1.000000
vt 0.200000 0.500000
vt 0.021746 0.324164
vt 0.391068 0.055836
vt 0.478254 0.324164
vt 0.200000 1.000000
vt 0.100000 0.500000
vt 0.100000 1.000000
vt -0.000000 0.500000
vt 0.978254 0.175836
vt 0.521746 0.175836
vt 0.608932 0.444164
vt 0.800000 1.000000
vt 0.391068 0.444164
vt 0.250000 0.490000
vt 0.108932 0.444164
vt 0.021746 0.175836
vt 0.108932 0.055836
vt 0.250000 0.010000
vt 0.478254 0.175836
vt -0.000000 1.000000
vt 0.750000 0.490000
vt 0.891068 0.444164
vt 0.978254 0.324164
vt 0.891068 0.055836
vt 0.750000 0.010000
vt 0.608932 0.055836
vt 0.521746 0.324164
s 0
usemtl DecentraWheelMaterial.003
f 75/120/63 76/121/63 74/122/63
f 77/123/64 78/124/64 76/121/64
f 78/124/65 81/125/65 80/126/65
f 81/125/66 82/127/66 80/126/66
f 83/128/67 84/129/67 82/127/67
f 85/130/68 86/131/68 84/129/68
f 87/132/69 88/133/69 86/131/69
f 89/134/70 90/135/70 88/133/70
f 91/136/71 83/137/71 79/138/71
f 91/139/72 92/140/72 90/135/72
f 93/141/73 74/142/73 92/140/73
f 80/143/74 88/144/74 92/145/74
f 95/120/63 96/121/63 94/122/63
f 97/123/64 98/124/64 96/121/64
f 99/146/65 100/126/65 98/124/65
f 101/125/66 102/127/66 100/126/66
f 103/128/67 104/129/67 102/127/67
f 105/130/68 106/131/68 104/129/68
f 107/132/69 108/133/69 106/131/69
f 109/134/70 110/135/70 108/133/70
f 111/136/71 103/137/71 99/138/71
f 111/139/72 112/140/72 110/135/72
f 113/141/73 94/142/73 112/140/73
f 100/143/74 108/144/74 112/145/74
f 75/120/63 77/123/63 76/121/63
f 77/123/64 79/146/64 78/124/64
f 78/124/65 79/146/65 81/125/65
f 81/125/66 83/128/66 82/127/66
f 83/128/67 85/130/67 84/129/67
f 85/130/68 87/132/68 86/131/68
f 87/132/69 89/134/69 88/133/69
f 89/134/70 91/139/70 90/135/70
f 79/138/71 77/147/71 75/148/71
f 75/148/71 93/149/71 91/136/71
f 91/136/71 89/150/71 87/151/71
f 87/151/71 85/152/71 83/137/71
f 83/137/71 81/153/71 79/138/71
f 79/138/71 75/148/71 91/136/71
f 91/136/71 87/151/71 83/137/71
f 91/139/72 93/141/72 92/140/72
f 93/141/73 75/154/73 74/142/73
f 92/145/74 74/155/74 76/156/74
f 76/156/74 78/157/74 80/143/74
f 80/143/74 82/158/74 84/159/74
f 84/159/74 86/160/74 88/144/74
f 88/144/74 90/161/74 92/145/74
f 92/145/74 76/156/74 80/143/74
f 80/143/74 84/159/74 88/144/74
f 95/120/63 97/123/63 96/121/63
f 97/123/64 99/146/64 98/124/64
f 99/146/65 101/125/65 100/126/65
f 101/125/66 103/128/66 102/127/66
f 103/128/67 105/130/67 104/129/67
f 105/130/68 107/132/68 106/131/68
f 107/132/69 109/134/69 108/133/69
f 109/134/70 111/139/70 110/135/70
f 99/138/71 97/147/71 95/148/71
f 95/148/71 113/149/71 111/136/71
f 111/136/71 109/150/71 107/151/71
f 107/151/71 105/152/71 103/137/71
f 103/137/71 101/153/71 99/138/71
f 99/138/71 95/148/71 111/136/71
f 111/136/71 107/151/71 103/137/71
f 111/139/72 113/141/72 112/140/72
f 113/141/73 95/154/73 94/142/73
f 112/145/74 94/155/74 96/156/74
f 96/156/74 98/157/74 100/143/74
f 100/143/74 102/158/74 104/159/74
f 104/159/74 106/160/74 108/144/74
f 108/144/74 110/161/74 112/145/74
f 112/145/74 96/156/74 100/143/74
f 100/143/74 104/159/74 108/144/74
